<svg xmlns="http://www.w3.org/2000/svg" viewBox="0 0 400 300" width="406" height="306" class="illustration styles_illustrationTablet__1DWOa"><g id="_142_user_status_outline" data-name="#142_user_status_outline"><path d="M153.88,142.93a37.25,37.25,0,0,1-21.83,33.92,36.5,36.5,0,0,1-6.72,2.31,37.57,37.57,0,0,1-17.39,0,36.25,36.25,0,0,1-6.72-2.31,37.26,37.26,0,1,1,52.66-33.92Z" fill="#fff"></path><path d="M116.63,181.18a38.26,38.26,0,0,1-8.93-1.05,37.52,37.52,0,0,1-6.9-2.37,38.25,38.25,0,1,1,31.67,0,37.36,37.36,0,0,1-6.91,2.37A38.19,38.19,0,0,1,116.63,181.18Zm0-74.51a36.26,36.26,0,0,0-15,69.27,35.08,35.08,0,0,0,6.54,2.24,36.69,36.69,0,0,0,16.93,0,35.08,35.08,0,0,0,6.54-2.24,36.26,36.26,0,0,0-15-69.27Z" fill="#093f68"></path><path d="M132.05,168.22v8.63a36.5,36.5,0,0,1-6.72,2.31,37.57,37.57,0,0,1-17.39,0,36.25,36.25,0,0,1-6.72-2.31v-8.63a10.43,10.43,0,0,1,10.43-10.44h10A10.44,10.44,0,0,1,132.05,168.22Z" fill="#000000"></path><path d="M116.63,181.18a38.26,38.26,0,0,1-8.93-1.05,37.52,37.52,0,0,1-6.9-2.37,1,1,0,0,1-.58-.91v-8.63a11.44,11.44,0,0,1,11.43-11.44h10a11.45,11.45,0,0,1,11.44,11.44v8.63a1,1,0,0,1-.58.91,37.36,37.36,0,0,1-6.91,2.37A38.19,38.19,0,0,1,116.63,181.18Zm-14.41-5a34.9,34.9,0,0,0,6,2,36.69,36.69,0,0,0,16.93,0,35.49,35.49,0,0,0,6-2v-8a9.45,9.45,0,0,0-9.44-9.44h-10a9.45,9.45,0,0,0-9.43,9.44Zm29.83.65h0Z" fill="#093f68"></path><polygon points="116.63 177.72 114.28 159.16 119.39 159.39 116.63 177.72" fill="#fff"></polygon><path d="M116.63,178.71h0a1,1,0,0,1-1-.87l-2.35-18.56a1,1,0,0,1,1-1.12l5.11.23a1,1,0,0,1,.72.36,1,1,0,0,1,.22.79l-2.76,18.32A1,1,0,0,1,116.63,178.71Zm-1.21-18.5,1.3,10.22,1.52-10.09Z" fill="#093f68"></path><path d="M115.32,115.29a12.71,12.71,0,0,1,2-.15c3,0,6.09-.08,8.84,1.26a16.73,16.73,0,0,1,9.31,14.9v12.36H98.66a7.48,7.48,0,0,1,.14-2.31,9.79,9.79,0,0,0-.35-2.39,33.11,33.11,0,0,1-.73-6.12,24,24,0,0,1,2-9.41,10.32,10.32,0,0,1,3.18-4.75c1.58-1.12,4.08-1.16,5.2.42A12.6,12.6,0,0,1,115.32,115.29Z" fill="#725858"></path><path d="M135.42,144.66H98.66a1,1,0,0,1-1-.73,4.17,4.17,0,0,1,0-2c0-.23.08-.45.09-.66a6.31,6.31,0,0,0-.23-1.61c0-.18-.08-.36-.11-.54a33.94,33.94,0,0,1-.75-6.3,24.74,24.74,0,0,1,2.06-9.81,11.22,11.22,0,0,1,3.52-5.19,5.11,5.11,0,0,1,5.78-.18,13.64,13.64,0,0,1,7.08-3.38h0a13.91,13.91,0,0,1,2.11-.16h.54c2.92,0,6,0,8.74,1.37a17.67,17.67,0,0,1,9.87,15.79v12.36A1,1,0,0,1,135.42,144.66Zm-35.79-2h34.79V131.3a15.68,15.68,0,0,0-8.75-14c-2.38-1.16-5-1.16-7.86-1.16h-.54a12.44,12.44,0,0,0-1.8.14h0a11.45,11.45,0,0,0-6.65,3.49,1,1,0,0,1-1.55-.09c-.79-1.1-2.66-1-3.81-.19a9.4,9.4,0,0,0-2.83,4.32,22.77,22.77,0,0,0-1.91,9,32.65,32.65,0,0,0,.71,5.94c0,.16.07.33.1.5a7.55,7.55,0,0,1,.27,2.12,7.92,7.92,0,0,1-.11.92Z" fill="#093f68"></path><path d="M114.14,155.79h5.25a0,0,0,0,1,0,0v3a2.23,2.23,0,0,1-2.23,2.23h-.79a2.23,2.23,0,0,1-2.23-2.23v-3A0,0,0,0,1,114.14,155.79Z" fill="#ffc9b0"></path><path d="M117.16,162h-.79a3.23,3.23,0,0,1-3.23-3.23v-3a1,1,0,0,1,1-1h5.25a1,1,0,0,1,1,1v3A3.23,3.23,0,0,1,117.16,162Zm-2-5.25v2a1.23,1.23,0,0,0,1.23,1.23h.79a1.23,1.23,0,0,0,1.23-1.23v-2Z" fill="#093f68"></path><ellipse cx="101.78" cy="142.17" rx="5.1" ry="4.39" fill="#ffc9b0"></ellipse><path d="M101.78,147.56c-3.37,0-6.1-2.42-6.1-5.39s2.73-5.4,6.1-5.4,6.09,2.42,6.09,5.4S105.14,147.56,101.78,147.56Zm0-8.79c-2.26,0-4.1,1.52-4.1,3.4s1.84,3.39,4.1,3.39,4.09-1.52,4.09-3.39S104,138.77,101.78,138.77Z" fill="#093f68"></path><ellipse cx="131.49" cy="142.17" rx="5.1" ry="4.39" fill="#ffc9b0"></ellipse><path d="M131.49,147.56c-3.36,0-6.1-2.42-6.1-5.39s2.74-5.4,6.1-5.4,6.1,2.42,6.1,5.4S134.85,147.56,131.49,147.56Zm0-8.79c-2.26,0-4.1,1.52-4.1,3.4s1.84,3.39,4.1,3.39,4.1-1.52,4.1-3.39S133.75,138.77,131.49,138.77Z" fill="#093f68"></path><path d="M116.77,156.48h0a15.37,15.37,0,0,1-15.37-15.37v-8.28s3.86-2.21,5-5.68c0,0,5.91,6.71,11.61,6.26a132.67,132.67,0,0,0,14.12-2v9.67A15.37,15.37,0,0,1,116.77,156.48Z" fill="#ffc9b0"></path><path d="M116.77,157.48a16.38,16.38,0,0,1-16.37-16.37v-8.28a1,1,0,0,1,.5-.86s3.55-2.08,4.57-5.14a1,1,0,0,1,.74-.66,1,1,0,0,1,1,.31c0,.07,5.65,6.35,10.77,5.93a132.12,132.12,0,0,0,14-1.95,1,1,0,0,1,.83.2,1,1,0,0,1,.37.78v9.67A16.38,16.38,0,0,1,116.77,157.48ZM102.4,133.39v7.72a14.37,14.37,0,0,0,28.74,0v-8.46c-2.28.42-7.51,1.31-13,1.76-4.69.37-9.34-3.53-11.37-5.5A13.9,13.9,0,0,1,102.4,133.39Z" fill="#093f68"></path><path d="M116.69,144.66a8.71,8.71,0,0,1-1.48-.13,1,1,0,0,1-.81-1.15,1,1,0,0,1,1.16-.82,6.42,6.42,0,0,0,1.4.09,13.64,13.64,0,0,0-1.08-2.62,1,1,0,0,1,.43-1.35,1,1,0,0,1,1.34.42c1.19,2.27,1.6,3.84,1.22,4.67a1.3,1.3,0,0,1-.88.75A5.75,5.75,0,0,1,116.69,144.66Z" fill="#093f68"></path><path d="M107.94,180.16a1,1,0,0,1-1-1V169.1a1,1,0,1,1,2,0v10.06A1,1,0,0,1,107.94,180.16Z" fill="#093f68"></path><path d="M125.33,180.16a1,1,0,0,1-1-1V169.1a1,1,0,0,1,2,0v10.06A1,1,0,0,1,125.33,180.16Z" fill="#093f68"></path><circle cx="145.63" cy="167.75" r="10.21" fill="#70cc40"></circle><path d="M145.63,179a11.21,11.21,0,1,1,11.21-11.21A11.22,11.22,0,0,1,145.63,179Zm0-20.42a9.21,9.21,0,1,0,9.21,9.21A9.22,9.22,0,0,0,145.63,158.54Z" fill="#093f68"></path><path d="M142.46,172.69a1.47,1.47,0,0,1-.46-.07,1.49,1.49,0,0,1-.95-.93l-1.92-5.47a1.5,1.5,0,0,1,2.83-1l1.27,3.62,6.63-4.55a1.5,1.5,0,1,1,1.7,2.47l-8.25,5.66A1.52,1.52,0,0,1,142.46,172.69Z" fill="#093f68"></path><path d="M237.58,142.93a37.25,37.25,0,0,1-21.83,33.92,36.76,36.76,0,0,1-6.72,2.31,37.61,37.61,0,0,1-17.4,0,36.76,36.76,0,0,1-6.72-2.31,37.26,37.26,0,1,1,52.67-33.92Z" fill="#fff"></path><path d="M200.33,181.18a38.19,38.19,0,0,1-8.93-1.05,37,37,0,0,1-6.9-2.37,38.25,38.25,0,1,1,31.66,0,37.52,37.52,0,0,1-6.9,2.37A38.26,38.26,0,0,1,200.33,181.18Zm0-74.51a36.26,36.26,0,0,0-15,69.27,35.08,35.08,0,0,0,6.54,2.24,36.69,36.69,0,0,0,16.93,0,35.08,35.08,0,0,0,6.54-2.24,36.26,36.26,0,0,0-15-69.27Z" fill="#093f68"></path><path d="M215.75,168.22v8.63a36.76,36.76,0,0,1-6.72,2.31,37.61,37.61,0,0,1-17.4,0,36.76,36.76,0,0,1-6.72-2.31v-8.63a10.44,10.44,0,0,1,10.43-10.44h10A10.45,10.45,0,0,1,215.75,168.22Z" fill="#000000"></path><path d="M200.33,181.18a38.19,38.19,0,0,1-8.93-1.05,37,37,0,0,1-6.9-2.37,1,1,0,0,1-.59-.91v-8.63a11.45,11.45,0,0,1,11.43-11.44h10a11.46,11.46,0,0,1,11.44,11.44v8.63a1,1,0,0,1-.59.91,37.52,37.52,0,0,1-6.9,2.37A38.26,38.26,0,0,1,200.33,181.18Zm-14.42-5a35.49,35.49,0,0,0,6,2,36.69,36.69,0,0,0,16.93,0,35.3,35.3,0,0,0,6-2v-8a9.46,9.46,0,0,0-9.44-9.44h-10a9.45,9.45,0,0,0-9.43,9.44Zm29.84.65h0Z" fill="#093f68"></path><polygon points="200.33 177.72 197.97 159.16 203.09 159.39 200.33 177.72" fill="#fff"></polygon><path d="M200.33,178.71h0a1,1,0,0,1-1-.87L197,159.28a1,1,0,0,1,.26-.8,1,1,0,0,1,.78-.32l5.11.23a1,1,0,0,1,.73.36,1,1,0,0,1,.21.79l-2.76,18.32A1,1,0,0,1,200.33,178.71Zm-1.21-18.5,1.29,10.22,1.52-10.09Z" fill="#093f68"></path><path d="M199,115.29a12.81,12.81,0,0,1,2-.15c3,0,6.09-.08,8.85,1.26a16.73,16.73,0,0,1,9.3,14.9v12.36H182.35a7.48,7.48,0,0,1,.15-2.31,10.32,10.32,0,0,0-.36-2.39,33.1,33.1,0,0,1-.72-6.12,23.63,23.63,0,0,1,2-9.41,10.23,10.23,0,0,1,3.17-4.75c1.58-1.12,4.08-1.16,5.21.42A12.54,12.54,0,0,1,199,115.29Z" fill="#725858"></path><path d="M219.11,144.66H182.35a1,1,0,0,1-1-.73,4.31,4.31,0,0,1,0-2,5.47,5.47,0,0,0,.09-.66,6.76,6.76,0,0,0-.22-1.61l-.12-.54a33.87,33.87,0,0,1-.74-6.3,24.51,24.51,0,0,1,2.05-9.81,11.32,11.32,0,0,1,3.53-5.19,5.11,5.11,0,0,1,5.78-.18,13.6,13.6,0,0,1,7.08-3.38h0a13.63,13.63,0,0,1,2.11-.16h.53c2.92,0,5.95,0,8.75,1.37a17.68,17.68,0,0,1,9.86,15.79v12.36A1,1,0,0,1,219.11,144.66Zm-35.79-2h34.79V131.3a15.68,15.68,0,0,0-8.74-14c-2.38-1.16-5.05-1.16-7.87-1.16H201a12.1,12.1,0,0,0-1.79.14h0a11.45,11.45,0,0,0-6.66,3.49,1,1,0,0,1-.8.32,1,1,0,0,1-.75-.41c-.78-1.1-2.66-1-3.81-.19a9.48,9.48,0,0,0-2.83,4.32,22.75,22.75,0,0,0-1.9,9,31.8,31.8,0,0,0,.7,5.94c0,.16.07.33.11.5a7.94,7.94,0,0,1,.27,2.12c0,.29-.07.6-.12.92ZM199,115.29h0Z" fill="#093f68"></path><path d="M197.84,155.79h5.25a0,0,0,0,1,0,0v3a2.23,2.23,0,0,1-2.23,2.23h-.79a2.23,2.23,0,0,1-2.23-2.23v-3A0,0,0,0,1,197.84,155.79Z" fill="#ffc9b0"></path><path d="M200.86,162h-.79a3.23,3.23,0,0,1-3.23-3.23v-3a1,1,0,0,1,1-1h5.24a1,1,0,0,1,1,1v3A3.23,3.23,0,0,1,200.86,162Zm-2-5.25v2a1.23,1.23,0,0,0,1.23,1.23h.79a1.23,1.23,0,0,0,1.22-1.23v-2Z" fill="#093f68"></path><ellipse cx="185.47" cy="142.17" rx="5.1" ry="4.39" fill="#ffc9b0"></ellipse><path d="M185.47,147.56c-3.36,0-6.1-2.42-6.1-5.39s2.74-5.4,6.1-5.4,6.1,2.42,6.1,5.4S188.83,147.56,185.47,147.56Zm0-8.79c-2.26,0-4.1,1.52-4.1,3.4s1.84,3.39,4.1,3.39,4.1-1.52,4.1-3.39S187.73,138.77,185.47,138.77Z" fill="#093f68"></path><ellipse cx="215.18" cy="142.17" rx="5.1" ry="4.39" fill="#ffc9b0"></ellipse><path d="M215.18,147.56c-3.36,0-6.09-2.42-6.09-5.39s2.73-5.4,6.09-5.4,6.1,2.42,6.1,5.4S218.54,147.56,215.18,147.56Zm0-8.79c-2.26,0-4.09,1.52-4.09,3.4s1.83,3.39,4.09,3.39,4.1-1.52,4.1-3.39S217.44,138.77,215.18,138.77Z" fill="#093f68"></path><path d="M200.46,156.48h0a15.37,15.37,0,0,1-15.37-15.37v-8.28s3.87-2.21,5-5.68c0,0,5.91,6.71,11.6,6.26a132.19,132.19,0,0,0,14.12-2v9.67A15.37,15.37,0,0,1,200.46,156.48Z" fill="#ffc9b0"></path><path d="M200.46,157.48a16.38,16.38,0,0,1-16.37-16.37v-8.28a1,1,0,0,1,.5-.86s3.56-2.08,4.57-5.14a1,1,0,0,1,1.7-.35c.06.07,5.65,6.35,10.77,5.93a131.16,131.16,0,0,0,14-1.95,1,1,0,0,1,1.2,1v9.67A16.38,16.38,0,0,1,200.46,157.48Zm-14.37-24.09v7.72a14.37,14.37,0,0,0,28.74,0v-8.46c-2.28.42-7.51,1.31-13,1.76-4.69.37-9.33-3.53-11.37-5.5A13.9,13.9,0,0,1,186.09,133.39Z" fill="#093f68"></path><path d="M200.38,144.66a8.54,8.54,0,0,1-1.47-.13,1,1,0,0,1-.82-1.15,1,1,0,0,1,1.16-.82,6.48,6.48,0,0,0,1.4.09,13.64,13.64,0,0,0-1.08-2.62,1,1,0,0,1,1.78-.93c1.18,2.27,1.59,3.84,1.22,4.67a1.31,1.31,0,0,1-.89.75A5.75,5.75,0,0,1,200.38,144.66Z" fill="#093f68"></path><path d="M191.63,180.16a1,1,0,0,1-1-1V169.1a1,1,0,0,1,2,0v10.06A1,1,0,0,1,191.63,180.16Z" fill="#093f68"></path><path d="M209,180.16a1,1,0,0,1-1-1V169.1a1,1,0,0,1,2,0v10.06A1,1,0,0,1,209,180.16Z" fill="#093f68"></path><circle cx="229.32" cy="167.75" r="10.21" fill="#f56132"></circle><path d="M229.32,179a11.21,11.21,0,1,1,11.21-11.21A11.22,11.22,0,0,1,229.32,179Zm0-20.42a9.21,9.21,0,1,0,9.21,9.21A9.22,9.22,0,0,0,229.32,158.54Z" fill="#093f68"></path><path d="M233.1,173a1.51,1.51,0,0,1-1.06-.44L224.48,165a1.5,1.5,0,0,1,2.12-2.12l7.56,7.56a1.49,1.49,0,0,1,0,2.12A1.51,1.51,0,0,1,233.1,173Z" fill="#093f68"></path><path d="M225.54,173a1.53,1.53,0,0,1-1.06-.44,1.51,1.51,0,0,1,0-2.12l7.56-7.56a1.51,1.51,0,0,1,2.12,0,1.49,1.49,0,0,1,0,2.12l-7.56,7.56A1.49,1.49,0,0,1,225.54,173Z" fill="#093f68"></path><path d="M321.27,142.93a37.25,37.25,0,0,1-21.83,33.92,36.76,36.76,0,0,1-6.72,2.31,37.61,37.61,0,0,1-17.4,0,36.76,36.76,0,0,1-6.72-2.31,37.26,37.26,0,1,1,52.67-33.92Z" fill="#fff"></path><path d="M284,181.18a38.26,38.26,0,0,1-8.93-1.05,37.52,37.52,0,0,1-6.9-2.37,38.25,38.25,0,1,1,31.66,0,37,37,0,0,1-6.9,2.37A38.19,38.19,0,0,1,284,181.18Zm0-74.51a36.26,36.26,0,0,0-15,69.27,35.24,35.24,0,0,0,6.53,2.24,36.73,36.73,0,0,0,16.94,0,35.08,35.08,0,0,0,6.54-2.24,36.26,36.26,0,0,0-15-69.27Z" fill="#093f68"></path><path d="M299.44,168.22v8.63a36.76,36.76,0,0,1-6.72,2.31,37.61,37.61,0,0,1-17.4,0,36.76,36.76,0,0,1-6.72-2.31v-8.63A10.44,10.44,0,0,1,279,157.78h10A10.44,10.44,0,0,1,299.44,168.22Z" fill="#000000"></path><path d="M284,181.18a38.26,38.26,0,0,1-8.93-1.05,37.52,37.52,0,0,1-6.9-2.37,1,1,0,0,1-.59-.91v-8.63A11.45,11.45,0,0,1,279,156.78h10a11.45,11.45,0,0,1,11.44,11.44v8.63a1,1,0,0,1-.59.91,37,37,0,0,1-6.9,2.37A38.19,38.19,0,0,1,284,181.18Zm-14.42-5a35.49,35.49,0,0,0,5.95,2,36.73,36.73,0,0,0,16.94,0,35.49,35.49,0,0,0,5.95-2v-8a9.45,9.45,0,0,0-9.44-9.44H279a9.45,9.45,0,0,0-9.44,9.44Zm29.84.65h0Z" fill="#093f68"></path><polygon points="284.02 177.72 281.67 159.16 286.78 159.39 284.02 177.72" fill="#fff"></polygon><path d="M284,178.71h0a1,1,0,0,1-1-.87l-2.35-18.56a1,1,0,0,1,.25-.8,1,1,0,0,1,.78-.32l5.11.23a1,1,0,0,1,.73.36,1,1,0,0,1,.22.79L285,177.86A1,1,0,0,1,284,178.71Zm-1.21-18.5,1.29,10.22,1.52-10.09Z" fill="#093f68"></path><path d="M282.71,115.29a12.71,12.71,0,0,1,2-.15c3,0,6.09-.08,8.84,1.26a16.73,16.73,0,0,1,9.31,14.9v12.36H266.05a7.48,7.48,0,0,1,.14-2.31,9.35,9.35,0,0,0-.36-2.39,34,34,0,0,1-.72-6.12,23.81,23.81,0,0,1,2-9.41,10.32,10.32,0,0,1,3.18-4.75c1.57-1.12,4.08-1.16,5.2.42A12.57,12.57,0,0,1,282.71,115.29Z" fill="#725858"></path><path d="M302.81,144.66H266a1,1,0,0,1-1-.73,4.31,4.31,0,0,1,0-2,5.47,5.47,0,0,0,.09-.66,6.28,6.28,0,0,0-.22-1.61l-.12-.54a34.73,34.73,0,0,1-.74-6.3,24.74,24.74,0,0,1,2.06-9.81,11.22,11.22,0,0,1,3.52-5.19,5.1,5.1,0,0,1,5.78-.18,13.64,13.64,0,0,1,7.08-3.38h0a12.57,12.57,0,0,1,2.11-.16h.53c2.93,0,5.95,0,8.75,1.37a17.67,17.67,0,0,1,9.87,15.79v12.36A1,1,0,0,1,302.81,144.66Zm-35.79-2h34.79V131.3a15.68,15.68,0,0,0-8.75-14c-2.38-1.16-5-1.16-7.87-1.16h-.53a11,11,0,0,0-1.8.14h0a11.48,11.48,0,0,0-6.66,3.49.92.92,0,0,1-.79.32,1,1,0,0,1-.75-.41c-.79-1.1-2.66-1-3.82-.19a9.46,9.46,0,0,0-2.82,4.32,22.6,22.6,0,0,0-1.91,9,33.57,33.57,0,0,0,.7,5.94c0,.16.08.33.11.5a7.94,7.94,0,0,1,.27,2.12,6.28,6.28,0,0,1-.12.92C267.05,142.43,267,142.54,267,142.66Zm15.69-27.37h0Z" fill="#093f68"></path><path d="M281.53,155.79h5.25a0,0,0,0,1,0,0v3a2.23,2.23,0,0,1-2.23,2.23h-.79a2.23,2.23,0,0,1-2.23-2.23v-3A0,0,0,0,1,281.53,155.79Z" fill="#ffc9b0"></path><path d="M284.55,162h-.79a3.23,3.23,0,0,1-3.23-3.23v-3a1,1,0,0,1,1-1h5.25a1,1,0,0,1,1,1v3A3.23,3.23,0,0,1,284.55,162Zm-2-5.25v2a1.23,1.23,0,0,0,1.23,1.23h.79a1.23,1.23,0,0,0,1.23-1.23v-2Z" fill="#093f68"></path><ellipse cx="269.16" cy="142.17" rx="5.1" ry="4.39" fill="#ffc9b0"></ellipse><path d="M269.16,147.56c-3.36,0-6.09-2.42-6.09-5.39s2.73-5.4,6.09-5.4,6.1,2.42,6.1,5.4S272.52,147.56,269.16,147.56Zm0-8.79c-2.26,0-4.09,1.52-4.09,3.4s1.83,3.39,4.09,3.39,4.1-1.52,4.1-3.39S271.42,138.77,269.16,138.77Z" fill="#093f68"></path><ellipse cx="298.88" cy="142.17" rx="5.1" ry="4.39" fill="#ffc9b0"></ellipse><path d="M298.88,147.56c-3.36,0-6.1-2.42-6.1-5.39s2.74-5.4,6.1-5.4,6.09,2.42,6.09,5.4S302.24,147.56,298.88,147.56Zm0-8.79c-2.26,0-4.1,1.52-4.1,3.4s1.84,3.39,4.1,3.39S303,144,303,142.17,301.14,138.77,298.88,138.77Z" fill="#093f68"></path><path d="M284.16,156.48h0a15.38,15.38,0,0,1-15.38-15.37v-8.28s3.87-2.21,5-5.68c0,0,5.91,6.71,11.6,6.26a132.62,132.62,0,0,0,14.13-2v9.67A15.37,15.37,0,0,1,284.16,156.48Z" fill="#ffc9b0"></path><path d="M284.16,157.48a16.39,16.39,0,0,1-16.38-16.37v-8.28a1,1,0,0,1,.51-.86s3.55-2.08,4.56-5.14a1,1,0,0,1,.75-.66,1,1,0,0,1,.95.31c.06.07,5.66,6.35,10.78,5.93a132.12,132.12,0,0,0,14-1.95,1,1,0,0,1,.83.2,1,1,0,0,1,.37.78v9.67A16.39,16.39,0,0,1,284.16,157.48Zm-14.38-24.09v7.72a14.38,14.38,0,0,0,28.75,0v-8.46c-2.28.42-7.52,1.31-13,1.76-4.68.37-9.33-3.53-11.37-5.5A13.8,13.8,0,0,1,269.78,133.39Z" fill="#093f68"></path><path d="M284.08,144.66a8.58,8.58,0,0,1-1.48-.13,1,1,0,0,1-.81-1.15,1,1,0,0,1,1.16-.82,6.37,6.37,0,0,0,1.4.09,15.08,15.08,0,0,0-1.08-2.62,1,1,0,0,1,1.77-.93c1.19,2.27,1.6,3.84,1.22,4.67a1.31,1.31,0,0,1-.89.75A5.6,5.6,0,0,1,284.08,144.66Z" fill="#093f68"></path><path d="M275.32,180.16a1,1,0,0,1-1-1V169.1a1,1,0,1,1,2,0v10.06A1,1,0,0,1,275.32,180.16Z" fill="#093f68"></path><path d="M292.72,180.16a1,1,0,0,1-1-1V169.1a1,1,0,0,1,2,0v10.06A1,1,0,0,1,292.72,180.16Z" fill="#093f68"></path><circle cx="313.02" cy="167.75" r="10.21" fill="#fff"></circle><path d="M313,179a11.21,11.21,0,1,1,11.2-11.21A11.22,11.22,0,0,1,313,179Zm0-20.42a9.21,9.21,0,1,0,9.2,9.21A9.22,9.22,0,0,0,313,158.54Z" fill="#093f68"></path><path d="M312.65,169.91a2.21,2.21,0,0,1-.2-1.43,1.43,1.43,0,0,1,.16-.48,1.81,1.81,0,0,1,.29-.41l.43-.47,1.32-1.33a1.51,1.51,0,0,0,.43-1.11,1.44,1.44,0,0,0-.44-1.08,1.52,1.52,0,0,0-1.1-.42,1.57,1.57,0,0,0-1.18.48c-.55.58-.9,2-2,1.3-.67-.39-.54-1.16-.25-1.74a3.37,3.37,0,0,1,.85-1.08,3.74,3.74,0,0,1,1.2-.68,4.81,4.81,0,0,1,1.5-.23,4.66,4.66,0,0,1,1.43.22,3.52,3.52,0,0,1,1.14.64,2.79,2.79,0,0,1,.76,1,3.53,3.53,0,0,1,.28,1.42,2.93,2.93,0,0,1-.16,1,3.12,3.12,0,0,1-.41.79,5.21,5.21,0,0,1-.59.68l-.7.68-.41.39a2.24,2.24,0,0,0-.29.35c-.36.6.14,1.3-.54,1.78a1,1,0,0,1-1.16,0A1.08,1.08,0,0,1,312.65,169.91Zm-.58,2.52a1.26,1.26,0,0,1,.4-.94,1.4,1.4,0,0,1,1.92,0,1.19,1.19,0,0,1,.41.93,1.24,1.24,0,0,1-.4.93,1.31,1.31,0,0,1-1,.4,1.27,1.27,0,0,1-.52-.11,1.25,1.25,0,0,1-.44-.27,1.4,1.4,0,0,1-.3-.41A1.26,1.26,0,0,1,312.07,172.43Z" fill="#093f68"></path></g></svg>